<?xml version="1.0" encoding="UTF-8" standalone="no"?>
<!DOCTYPE svg PUBLIC "-//W3C//DTD SVG 1.1//EN"
 "http://www.w3.org/Graphics/SVG/1.1/DTD/svg11.dtd">
<!-- Generated by graphviz version 2.44.0 (0)
 -->
<!-- Title: G Pages: 1 -->
<svg width="1411pt" height="630pt"
 viewBox="0.00 0.00 1411.23 629.88" xmlns="http://www.w3.org/2000/svg" xmlns:xlink="http://www.w3.org/1999/xlink">
<g id="graph0" class="graph" transform="scale(1 1) rotate(0) translate(4 625.88)">
<title>G</title><style>.edge>path:hover{stroke-width:8}</style>
<polygon fill="white" stroke="transparent" points="-4,4 -4,-625.88 1407.23,-625.88 1407.23,4 -4,4"/>
<!-- anisotropy_core_cli -->
<g id="node1" class="node">
<title>anisotropy_core_cli</title><style>.edge>path:hover{stroke-width:8}</style>
<ellipse fill="#813737" stroke="black" cx="833.57" cy="-28.99" rx="49.49" ry="28.98"/>
<text text-anchor="middle" x="833.57" y="-37.49" font-family="Helvetica,sans-Serif" font-size="10.00" fill="#ffffff">anisotropy.</text>
<text text-anchor="middle" x="833.57" y="-26.49" font-family="Helvetica,sans-Serif" font-size="10.00" fill="#ffffff">core.</text>
<text text-anchor="middle" x="833.57" y="-15.49" font-family="Helvetica,sans-Serif" font-size="10.00" fill="#ffffff">cli</text>
</g>
<!-- anisotropy_core_database -->
<g id="node2" class="node">
<title>anisotropy_core_database</title><style>.edge>path:hover{stroke-width:8}</style>
<ellipse fill="#a83838" stroke="black" cx="793.57" cy="-216.96" rx="49.49" ry="28.98"/>
<text text-anchor="middle" x="793.57" y="-225.46" font-family="Helvetica,sans-Serif" font-size="10.00" fill="#ffffff">anisotropy.</text>
<text text-anchor="middle" x="793.57" y="-214.46" font-family="Helvetica,sans-Serif" font-size="10.00" fill="#ffffff">core.</text>
<text text-anchor="middle" x="793.57" y="-203.46" font-family="Helvetica,sans-Serif" font-size="10.00" fill="#ffffff">database</text>
</g>
<!-- anisotropy_core_main -->
<g id="node3" class="node">
<title>anisotropy_core_main</title><style>.edge>path:hover{stroke-width:8}</style>
<ellipse fill="#732626" stroke="black" cx="795.57" cy="-122.97" rx="49.49" ry="28.98"/>
<text text-anchor="middle" x="795.57" y="-131.47" font-family="Helvetica,sans-Serif" font-size="10.00" fill="#ffffff">anisotropy.</text>
<text text-anchor="middle" x="795.57" y="-120.47" font-family="Helvetica,sans-Serif" font-size="10.00" fill="#ffffff">core.</text>
<text text-anchor="middle" x="795.57" y="-109.47" font-family="Helvetica,sans-Serif" font-size="10.00" fill="#ffffff">main</text>
</g>
<!-- anisotropy_core_database&#45;&gt;anisotropy_core_main -->
<g id="edge1" class="edge">
<title>anisotropy_core_database&#45;&gt;anisotropy_core_main</title><style>.edge>path:hover{stroke-width:8}</style>
<path fill="none" stroke="black" d="M794.18,-187.86C794.36,-179.82 794.55,-170.92 794.74,-162.38"/>
<polygon fill="#a83838" stroke="black" points="798.24,-162.29 794.96,-152.22 791.24,-162.14 798.24,-162.29"/>
</g>
<!-- anisotropy_core_main&#45;&gt;anisotropy_core_cli -->
<g id="edge2" class="edge">
<title>anisotropy_core_main&#45;&gt;anisotropy_core_cli</title><style>.edge>path:hover{stroke-width:8}</style>
<path fill="none" stroke="black" d="M806.97,-94.38C810.58,-85.66 814.61,-75.88 818.43,-66.63"/>
<polygon fill="#732626" stroke="black" points="821.73,-67.83 822.31,-57.25 815.26,-65.16 821.73,-67.83"/>
</g>
<!-- anisotropy_core_models -->
<g id="node4" class="node">
<title>anisotropy_core_models</title><style>.edge>path:hover{stroke-width:8}</style>
<ellipse fill="#c04040" stroke="black" cx="676.57" cy="-310.94" rx="49.49" ry="28.98"/>
<text text-anchor="middle" x="676.57" y="-319.44" font-family="Helvetica,sans-Serif" font-size="10.00" fill="#ffffff">anisotropy.</text>
<text text-anchor="middle" x="676.57" y="-308.44" font-family="Helvetica,sans-Serif" font-size="10.00" fill="#ffffff">core.</text>
<text text-anchor="middle" x="676.57" y="-297.44" font-family="Helvetica,sans-Serif" font-size="10.00" fill="#ffffff">models</text>
</g>
<!-- anisotropy_core_models&#45;&gt;anisotropy_core_database -->
<g id="edge3" class="edge">
<title>anisotropy_core_models&#45;&gt;anisotropy_core_database</title><style>.edge>path:hover{stroke-width:8}</style>
<path fill="none" stroke="black" d="M705.49,-287.2C720.96,-275.04 740.18,-259.94 756.71,-246.94"/>
<polygon fill="#c04040" stroke="black" points="758.88,-249.68 764.58,-240.75 754.55,-244.18 758.88,-249.68"/>
</g>
<!-- anisotropy_core_utils -->
<g id="node5" class="node">
<title>anisotropy_core_utils</title><style>.edge>path:hover{stroke-width:8}</style>
<ellipse fill="#db2f2f" stroke="black" cx="793.57" cy="-310.94" rx="49.49" ry="28.98"/>
<text text-anchor="middle" x="793.57" y="-319.44" font-family="Helvetica,sans-Serif" font-size="10.00" fill="#ffffff">anisotropy.</text>
<text text-anchor="middle" x="793.57" y="-308.44" font-family="Helvetica,sans-Serif" font-size="10.00" fill="#ffffff">core.</text>
<text text-anchor="middle" x="793.57" y="-297.44" font-family="Helvetica,sans-Serif" font-size="10.00" fill="#ffffff">utils</text>
</g>
<!-- anisotropy_core_utils&#45;&gt;anisotropy_core_cli -->
<g id="edge4" class="edge">
<title>anisotropy_core_utils&#45;&gt;anisotropy_core_cli</title><style>.edge>path:hover{stroke-width:8}</style>
<path fill="none" stroke="black" d="M872.57,-215.96C878.89,-175.57 894.33,-158.58 872.57,-123.97"/>
<path fill="none" stroke="black" d="M872.57,-121.97C861.92,-105.04 852.95,-84.68 846.31,-67.44"/>
<polygon fill="#db2f2f" stroke="black" points="849.44,-65.83 842.67,-57.69 842.89,-68.28 849.44,-65.83"/>
</g>
<!-- anisotropy_core_utils&#45;&gt;anisotropy_core_database -->
<g id="edge5" class="edge">
<title>anisotropy_core_utils&#45;&gt;anisotropy_core_database</title><style>.edge>path:hover{stroke-width:8}</style>
<path fill="none" stroke="black" d="M793.57,-281.84C793.57,-273.8 793.57,-264.9 793.57,-256.36"/>
<polygon fill="#db2f2f" stroke="black" points="797.07,-256.2 793.57,-246.2 790.07,-256.2 797.07,-256.2"/>
</g>
<!-- anisotropy_core_utils&#45;&gt;anisotropy_core_main -->
<g id="edge6" class="edge">
<title>anisotropy_core_utils&#45;&gt;anisotropy_core_main</title><style>.edge>path:hover{stroke-width:8}</style>
<path fill="none" stroke="black" d="M824.73,-288.33C844.82,-271.85 868.02,-247.07 872.57,-217.96"/>
<path fill="none" stroke="black" d="M872.57,-215.96C876.66,-189.8 857.7,-166.94 837.58,-150.55"/>
<polygon fill="#db2f2f" stroke="black" points="839.61,-147.7 829.55,-144.37 835.34,-153.25 839.61,-147.7"/>
</g>
<!-- anisotropy_openfoam -->
<g id="node6" class="node">
<title>anisotropy_openfoam</title><style>.edge>path:hover{stroke-width:8}</style>
<ellipse fill="#993333" stroke="black" cx="910.57" cy="-310.94" rx="49.49" ry="21.43"/>
<text text-anchor="middle" x="910.57" y="-313.94" font-family="Helvetica,sans-Serif" font-size="10.00" fill="#ffffff">anisotropy.</text>
<text text-anchor="middle" x="910.57" y="-302.94" font-family="Helvetica,sans-Serif" font-size="10.00" fill="#ffffff">openfoam</text>
</g>
<!-- anisotropy_openfoam&#45;&gt;anisotropy_core_main -->
<g id="edge7" class="edge">
<title>anisotropy_openfoam&#45;&gt;anisotropy_core_main</title><style>.edge>path:hover{stroke-width:8}</style>
<path fill="none" stroke="black" d="M911.05,-289.66C910.72,-263.97 906.91,-219.28 886.57,-187.97 875.74,-171.29 858.91,-157.68 842.65,-147.37"/>
<polygon fill="#993333" stroke="black" points="844.09,-144.15 833.72,-141.98 840.47,-150.14 844.09,-144.15"/>
</g>
<!-- anisotropy_openfoam_application -->
<g id="node7" class="node">
<title>anisotropy_openfoam_application</title><style>.edge>path:hover{stroke-width:8}</style>
<ellipse fill="#f31616" stroke="black" cx="910.57" cy="-498.91" rx="50.41" ry="28.98"/>
<text text-anchor="middle" x="910.57" y="-507.41" font-family="Helvetica,sans-Serif" font-size="10.00" fill="#ffffff">anisotropy.</text>
<text text-anchor="middle" x="910.57" y="-496.41" font-family="Helvetica,sans-Serif" font-size="10.00" fill="#ffffff">openfoam.</text>
<text text-anchor="middle" x="910.57" y="-485.41" font-family="Helvetica,sans-Serif" font-size="10.00" fill="#ffffff">application</text>
</g>
<!-- anisotropy_openfoam_meshConversion -->
<g id="node8" class="node">
<title>anisotropy_openfoam_meshConversion</title><style>.edge>path:hover{stroke-width:8}</style>
<ellipse fill="#c04040" stroke="black" cx="1047.57" cy="-404.92" rx="69.09" ry="28.98"/>
<text text-anchor="middle" x="1047.57" y="-413.42" font-family="Helvetica,sans-Serif" font-size="10.00" fill="#ffffff">anisotropy.</text>
<text text-anchor="middle" x="1047.57" y="-402.42" font-family="Helvetica,sans-Serif" font-size="10.00" fill="#ffffff">openfoam.</text>
<text text-anchor="middle" x="1047.57" y="-391.42" font-family="Helvetica,sans-Serif" font-size="10.00" fill="#ffffff">meshConversion</text>
</g>
<!-- anisotropy_openfoam_application&#45;&gt;anisotropy_openfoam_meshConversion -->
<g id="edge8" class="edge">
<title>anisotropy_openfoam_application&#45;&gt;anisotropy_openfoam_meshConversion</title><style>.edge>path:hover{stroke-width:8}</style>
<path fill="none" stroke="black" d="M942.69,-476.34C960.74,-464.22 983.54,-448.91 1003.27,-435.67"/>
<polygon fill="#f31616" stroke="black" points="1005.45,-438.42 1011.8,-429.94 1001.54,-432.61 1005.45,-438.42"/>
</g>
<!-- anisotropy_openfoam_meshManipulation -->
<g id="node9" class="node">
<title>anisotropy_openfoam_meshManipulation</title><style>.edge>path:hover{stroke-width:8}</style>
<ellipse fill="#c04040" stroke="black" cx="1327.57" cy="-404.92" rx="75.82" ry="28.98"/>
<text text-anchor="middle" x="1327.57" y="-413.42" font-family="Helvetica,sans-Serif" font-size="10.00" fill="#ffffff">anisotropy.</text>
<text text-anchor="middle" x="1327.57" y="-402.42" font-family="Helvetica,sans-Serif" font-size="10.00" fill="#ffffff">openfoam.</text>
<text text-anchor="middle" x="1327.57" y="-391.42" font-family="Helvetica,sans-Serif" font-size="10.00" fill="#ffffff">meshManipulation</text>
</g>
<!-- anisotropy_openfoam_application&#45;&gt;anisotropy_openfoam_meshManipulation -->
<g id="edge9" class="edge">
<title>anisotropy_openfoam_application&#45;&gt;anisotropy_openfoam_meshManipulation</title><style>.edge>path:hover{stroke-width:8}</style>
<path fill="none" stroke="black" d="M958.83,-490.59C1023.83,-480.28 1142.87,-459.83 1242.57,-433.91 1249.24,-432.18 1256.15,-430.21 1263.01,-428.13"/>
<polygon fill="#f31616" stroke="black" points="1264.5,-431.34 1273.01,-425.03 1262.42,-424.65 1264.5,-431.34"/>
</g>
<!-- anisotropy_openfoam_miscellaneous -->
<g id="node10" class="node">
<title>anisotropy_openfoam_miscellaneous</title><style>.edge>path:hover{stroke-width:8}</style>
<ellipse fill="#c04040" stroke="black" cx="614.57" cy="-404.92" rx="61.54" ry="28.98"/>
<text text-anchor="middle" x="614.57" y="-413.42" font-family="Helvetica,sans-Serif" font-size="10.00" fill="#ffffff">anisotropy.</text>
<text text-anchor="middle" x="614.57" y="-402.42" font-family="Helvetica,sans-Serif" font-size="10.00" fill="#ffffff">openfoam.</text>
<text text-anchor="middle" x="614.57" y="-391.42" font-family="Helvetica,sans-Serif" font-size="10.00" fill="#ffffff">miscellaneous</text>
</g>
<!-- anisotropy_openfoam_application&#45;&gt;anisotropy_openfoam_miscellaneous -->
<g id="edge10" class="edge">
<title>anisotropy_openfoam_application&#45;&gt;anisotropy_openfoam_miscellaneous</title><style>.edge>path:hover{stroke-width:8}</style>
<path fill="none" stroke="black" d="M865.12,-486.53C819.18,-474.68 746.34,-454.94 684.57,-433.91 679.66,-432.24 674.6,-430.42 669.54,-428.53"/>
<polygon fill="#f31616" stroke="black" points="670.47,-425.14 659.88,-424.84 667.97,-431.67 670.47,-425.14"/>
</g>
<!-- anisotropy_openfoam_parallelProcessing -->
<g id="node11" class="node">
<title>anisotropy_openfoam_parallelProcessing</title><style>.edge>path:hover{stroke-width:8}</style>
<ellipse fill="#c04040" stroke="black" cx="768.57" cy="-404.92" rx="74.91" ry="28.98"/>
<text text-anchor="middle" x="768.57" y="-413.42" font-family="Helvetica,sans-Serif" font-size="10.00" fill="#ffffff">anisotropy.</text>
<text text-anchor="middle" x="768.57" y="-402.42" font-family="Helvetica,sans-Serif" font-size="10.00" fill="#ffffff">openfoam.</text>
<text text-anchor="middle" x="768.57" y="-391.42" font-family="Helvetica,sans-Serif" font-size="10.00" fill="#ffffff">parallelProcessing</text>
</g>
<!-- anisotropy_openfoam_application&#45;&gt;anisotropy_openfoam_parallelProcessing -->
<g id="edge11" class="edge">
<title>anisotropy_openfoam_application&#45;&gt;anisotropy_openfoam_parallelProcessing</title><style>.edge>path:hover{stroke-width:8}</style>
<path fill="none" stroke="black" d="M877.99,-476.8C859.22,-464.64 835.32,-449.16 814.65,-435.77"/>
<polygon fill="#f31616" stroke="black" points="816.31,-432.68 806.02,-430.18 812.51,-438.55 816.31,-432.68"/>
</g>
<!-- anisotropy_openfoam_solvers -->
<g id="node12" class="node">
<title>anisotropy_openfoam_solvers</title><style>.edge>path:hover{stroke-width:8}</style>
<ellipse fill="#c04040" stroke="black" cx="910.57" cy="-404.92" rx="49.49" ry="28.98"/>
<text text-anchor="middle" x="910.57" y="-413.42" font-family="Helvetica,sans-Serif" font-size="10.00" fill="#ffffff">anisotropy.</text>
<text text-anchor="middle" x="910.57" y="-402.42" font-family="Helvetica,sans-Serif" font-size="10.00" fill="#ffffff">openfoam.</text>
<text text-anchor="middle" x="910.57" y="-391.42" font-family="Helvetica,sans-Serif" font-size="10.00" fill="#ffffff">solvers</text>
</g>
<!-- anisotropy_openfoam_application&#45;&gt;anisotropy_openfoam_solvers -->
<g id="edge12" class="edge">
<title>anisotropy_openfoam_application&#45;&gt;anisotropy_openfoam_solvers</title><style>.edge>path:hover{stroke-width:8}</style>
<path fill="none" stroke="black" d="M910.57,-469.81C910.57,-461.77 910.57,-452.87 910.57,-444.32"/>
<polygon fill="#f31616" stroke="black" points="914.07,-444.16 910.57,-434.16 907.07,-444.16 914.07,-444.16"/>
</g>
<!-- anisotropy_openfoam_meshConversion&#45;&gt;anisotropy_openfoam -->
<g id="edge13" class="edge">
<title>anisotropy_openfoam_meshConversion&#45;&gt;anisotropy_openfoam</title><style>.edge>path:hover{stroke-width:8}</style>
<path fill="none" stroke="black" d="M1011.93,-380C991.26,-366.12 965.36,-348.72 944.91,-334.99"/>
<polygon fill="#c04040" stroke="black" points="946.76,-332.02 936.51,-329.35 942.86,-337.84 946.76,-332.02"/>
</g>
<!-- anisotropy_openfoam_meshManipulation&#45;&gt;anisotropy_openfoam -->
<g id="edge14" class="edge">
<title>anisotropy_openfoam_meshManipulation&#45;&gt;anisotropy_openfoam</title><style>.edge>path:hover{stroke-width:8}</style>
<path fill="none" stroke="black" d="M1273.59,-384.47C1263.38,-381.27 1252.72,-378.25 1242.57,-375.93 1122.83,-348.6 1086.26,-375.07 968.57,-339.93 962.02,-337.98 955.29,-335.36 948.84,-332.5"/>
<polygon fill="#c04040" stroke="black" points="950.19,-329.27 939.65,-328.21 947.22,-335.61 950.19,-329.27"/>
</g>
<!-- anisotropy_openfoam_miscellaneous&#45;&gt;anisotropy_openfoam -->
<g id="edge15" class="edge">
<title>anisotropy_openfoam_miscellaneous&#45;&gt;anisotropy_openfoam</title><style>.edge>path:hover{stroke-width:8}</style>
<path fill="none" stroke="black" d="M659.36,-384.72C667.66,-381.54 676.31,-378.45 684.57,-375.93 757.19,-353.76 779.68,-364.37 851.57,-339.93 858.06,-337.72 864.78,-335 871.25,-332.12"/>
<polygon fill="#c04040" stroke="black" points="872.9,-335.22 880.51,-327.84 869.96,-328.86 872.9,-335.22"/>
</g>
<!-- anisotropy_openfoam_parallelProcessing&#45;&gt;anisotropy_openfoam -->
<g id="edge16" class="edge">
<title>anisotropy_openfoam_parallelProcessing&#45;&gt;anisotropy_openfoam</title><style>.edge>path:hover{stroke-width:8}</style>
<path fill="none" stroke="black" d="M805.88,-379.76C827.55,-365.72 854.66,-348.16 875.87,-334.42"/>
<polygon fill="#c04040" stroke="black" points="877.78,-337.35 884.27,-328.98 873.97,-331.48 877.78,-337.35"/>
</g>
<!-- anisotropy_openfoam_solvers&#45;&gt;anisotropy_openfoam -->
<g id="edge17" class="edge">
<title>anisotropy_openfoam_solvers&#45;&gt;anisotropy_openfoam</title><style>.edge>path:hover{stroke-width:8}</style>
<path fill="none" stroke="black" d="M910.57,-375.82C910.57,-365.28 910.57,-353.26 910.57,-342.51"/>
<polygon fill="#c04040" stroke="black" points="914.07,-342.28 910.57,-332.28 907.07,-342.28 914.07,-342.28"/>
</g>
<!-- anisotropy_openfoam_utils -->
<g id="node13" class="node">
<title>anisotropy_openfoam_utils</title><style>.edge>path:hover{stroke-width:8}</style>
<ellipse fill="#c24747" stroke="black" cx="1184.57" cy="-404.92" rx="49.49" ry="28.98"/>
<text text-anchor="middle" x="1184.57" y="-413.42" font-family="Helvetica,sans-Serif" font-size="10.00" fill="#ffffff">anisotropy.</text>
<text text-anchor="middle" x="1184.57" y="-402.42" font-family="Helvetica,sans-Serif" font-size="10.00" fill="#ffffff">openfoam.</text>
<text text-anchor="middle" x="1184.57" y="-391.42" font-family="Helvetica,sans-Serif" font-size="10.00" fill="#ffffff">utils</text>
</g>
<!-- anisotropy_openfoam_utils&#45;&gt;anisotropy_openfoam -->
<g id="edge18" class="edge">
<title>anisotropy_openfoam_utils&#45;&gt;anisotropy_openfoam</title><style>.edge>path:hover{stroke-width:8}</style>
<path fill="none" stroke="black" d="M1148.27,-385.19C1140.88,-381.81 1133.07,-378.53 1125.57,-375.93 1057.94,-352.45 1036.12,-363.64 968.57,-339.93 962.41,-337.77 956.04,-335.14 949.88,-332.36"/>
<polygon fill="#c24747" stroke="black" points="950.97,-329 940.43,-327.93 948,-335.34 950.97,-329"/>
</g>
<!-- anisotropy_salomepl -->
<g id="node14" class="node">
<title>anisotropy_salomepl</title><style>.edge>path:hover{stroke-width:8}</style>
<ellipse fill="#e72222" stroke="black" cx="76.57" cy="-592.89" rx="49.49" ry="21.43"/>
<text text-anchor="middle" x="76.57" y="-595.89" font-family="Helvetica,sans-Serif" font-size="10.00" fill="#ffffff">anisotropy.</text>
<text text-anchor="middle" x="76.57" y="-584.89" font-family="Helvetica,sans-Serif" font-size="10.00" fill="#ffffff">salomepl</text>
</g>
<!-- anisotropy_salomepl&#45;&gt;anisotropy_core_main -->
<g id="edge19" class="edge">
<title>anisotropy_salomepl&#45;&gt;anisotropy_core_main</title><style>.edge>path:hover{stroke-width:8}</style>
<path fill="none" stroke="black" d="M72.73,-571.48C70.01,-552.38 68.17,-523.36 76.57,-499.91"/>
<path fill="none" stroke="black" d="M76.57,-497.91C90.68,-458.53 24.3,-472.25 7.57,-433.91 -2.74,-410.3 -2.23,-399.77 7.57,-375.93 29.92,-321.58 49.83,-311.59 100.57,-281.95 193.66,-227.55 243.92,-276.33 334.57,-217.96"/>
<path fill="none" stroke="black" d="M334.57,-215.96C399.73,-172.06 627.65,-142.16 736.64,-130.04"/>
<polygon fill="#e72222" stroke="black" points="737.25,-133.49 746.81,-128.92 736.49,-126.53 737.25,-133.49"/>
</g>
<!-- anisotropy_samples_bodyCentered -->
<g id="node19" class="node">
<title>anisotropy_samples_bodyCentered</title><style>.edge>path:hover{stroke-width:8}</style>
<ellipse fill="#b03a3a" stroke="black" cx="76.57" cy="-404.92" rx="60.21" ry="28.98"/>
<text text-anchor="middle" x="76.57" y="-413.42" font-family="Helvetica,sans-Serif" font-size="10.00" fill="#ffffff">anisotropy.</text>
<text text-anchor="middle" x="76.57" y="-402.42" font-family="Helvetica,sans-Serif" font-size="10.00" fill="#ffffff">samples.</text>
<text text-anchor="middle" x="76.57" y="-391.42" font-family="Helvetica,sans-Serif" font-size="10.00" fill="#ffffff">bodyCentered</text>
</g>
<!-- anisotropy_salomepl&#45;&gt;anisotropy_samples_bodyCentered -->
<g id="edge20" class="edge">
<title>anisotropy_salomepl&#45;&gt;anisotropy_samples_bodyCentered</title><style>.edge>path:hover{stroke-width:8}</style>
<path fill="none" stroke="black" d="M76.57,-497.91C82.64,-480.97 83.37,-461.14 82.28,-444.23"/>
<polygon fill="#e72222" stroke="black" points="85.75,-443.79 81.4,-434.13 78.78,-444.4 85.75,-443.79"/>
</g>
<!-- anisotropy_samples_faceCentered -->
<g id="node20" class="node">
<title>anisotropy_samples_faceCentered</title><style>.edge>path:hover{stroke-width:8}</style>
<ellipse fill="#b03a3a" stroke="black" cx="212.57" cy="-404.92" rx="57.97" ry="28.98"/>
<text text-anchor="middle" x="212.57" y="-413.42" font-family="Helvetica,sans-Serif" font-size="10.00" fill="#ffffff">anisotropy.</text>
<text text-anchor="middle" x="212.57" y="-402.42" font-family="Helvetica,sans-Serif" font-size="10.00" fill="#ffffff">samples.</text>
<text text-anchor="middle" x="212.57" y="-391.42" font-family="Helvetica,sans-Serif" font-size="10.00" fill="#ffffff">faceCentered</text>
</g>
<!-- anisotropy_salomepl&#45;&gt;anisotropy_samples_faceCentered -->
<g id="edge21" class="edge">
<title>anisotropy_salomepl&#45;&gt;anisotropy_samples_faceCentered</title><style>.edge>path:hover{stroke-width:8}</style>
<path fill="none" stroke="black" d="M76.57,-497.91C83.64,-478.18 127.46,-450.77 163.47,-431.01"/>
<polygon fill="#e72222" stroke="black" points="165.31,-433.99 172.43,-426.16 161.97,-427.84 165.31,-433.99"/>
</g>
<!-- anisotropy_samples_simple -->
<g id="node21" class="node">
<title>anisotropy_samples_simple</title><style>.edge>path:hover{stroke-width:8}</style>
<ellipse fill="#b03a3a" stroke="black" cx="337.57" cy="-404.92" rx="49.49" ry="28.98"/>
<text text-anchor="middle" x="337.57" y="-413.42" font-family="Helvetica,sans-Serif" font-size="10.00" fill="#ffffff">anisotropy.</text>
<text text-anchor="middle" x="337.57" y="-402.42" font-family="Helvetica,sans-Serif" font-size="10.00" fill="#ffffff">samples.</text>
<text text-anchor="middle" x="337.57" y="-391.42" font-family="Helvetica,sans-Serif" font-size="10.00" fill="#ffffff">simple</text>
</g>
<!-- anisotropy_salomepl&#45;&gt;anisotropy_samples_simple -->
<g id="edge22" class="edge">
<title>anisotropy_salomepl&#45;&gt;anisotropy_samples_simple</title><style>.edge>path:hover{stroke-width:8}</style>
<path fill="none" stroke="black" d="M76.57,-497.91C108.48,-408.85 191.63,-468.78 279.57,-433.91 283.49,-432.36 287.51,-430.66 291.52,-428.88"/>
<polygon fill="#e72222" stroke="black" points="293.15,-431.99 300.8,-424.65 290.25,-425.62 293.15,-431.99"/>
</g>
<!-- anisotropy_salomepl_geometry -->
<g id="node15" class="node">
<title>anisotropy_salomepl_geometry</title><style>.edge>path:hover{stroke-width:8}</style>
<ellipse fill="#e72222" stroke="black" cx="375.57" cy="-592.89" rx="49.49" ry="28.98"/>
<text text-anchor="middle" x="375.57" y="-601.39" font-family="Helvetica,sans-Serif" font-size="10.00" fill="#ffffff">anisotropy.</text>
<text text-anchor="middle" x="375.57" y="-590.39" font-family="Helvetica,sans-Serif" font-size="10.00" fill="#ffffff">salomepl.</text>
<text text-anchor="middle" x="375.57" y="-579.39" font-family="Helvetica,sans-Serif" font-size="10.00" fill="#ffffff">geometry</text>
</g>
<!-- anisotropy_salomepl_geometry&#45;&gt;anisotropy_core_main -->
<g id="edge23" class="edge">
<title>anisotropy_salomepl_geometry&#45;&gt;anisotropy_core_main</title><style>.edge>path:hover{stroke-width:8}</style>
<path fill="none" stroke="black" d="M375.57,-497.91C362.7,-470.79 419.76,-402.58 433.57,-375.93 448.59,-346.96 480.42,-342.71 469.57,-311.94"/>
<path fill="none" stroke="black" d="M469.57,-309.94C464.54,-295.77 461.68,-292.08 450.57,-281.95 407.06,-242.28 285.07,-249.83 334.57,-217.96"/>
</g>
<!-- anisotropy_salomepl_geometry&#45;&gt;anisotropy_samples_bodyCentered -->
<g id="edge24" class="edge">
<title>anisotropy_salomepl_geometry&#45;&gt;anisotropy_samples_bodyCentered</title><style>.edge>path:hover{stroke-width:8}</style>
<path fill="none" stroke="black" d="M381.6,-563.96C384.29,-544.99 385.03,-519.81 375.57,-499.91"/>
<path fill="none" stroke="black" d="M375.57,-497.91C330.06,-402.06 246.01,-468.13 145.57,-433.91 140.65,-432.24 135.57,-430.4 130.51,-428.48"/>
<polygon fill="#e72222" stroke="black" points="131.42,-425.08 120.83,-424.74 128.9,-431.61 131.42,-425.08"/>
</g>
<!-- anisotropy_salomepl_geometry&#45;&gt;anisotropy_samples_faceCentered -->
<g id="edge25" class="edge">
<title>anisotropy_salomepl_geometry&#45;&gt;anisotropy_samples_faceCentered</title><style>.edge>path:hover{stroke-width:8}</style>
<path fill="none" stroke="black" d="M375.57,-497.91C364.96,-475.55 309.26,-447.23 265.9,-427.96"/>
<polygon fill="#e72222" stroke="black" points="267.14,-424.68 256.57,-423.87 264.33,-431.09 267.14,-424.68"/>
</g>
<!-- anisotropy_salomepl_geometry&#45;&gt;anisotropy_samples_simple -->
<g id="edge26" class="edge">
<title>anisotropy_salomepl_geometry&#45;&gt;anisotropy_samples_simple</title><style>.edge>path:hover{stroke-width:8}</style>
<path fill="none" stroke="black" d="M375.57,-497.91C367.15,-480.16 358.71,-460.04 351.93,-443.14"/>
<polygon fill="#e72222" stroke="black" points="355.09,-441.62 348.15,-433.62 348.59,-444.2 355.09,-441.62"/>
</g>
<!-- anisotropy_salomepl_mesh -->
<g id="node16" class="node">
<title>anisotropy_salomepl_mesh</title><style>.edge>path:hover{stroke-width:8}</style>
<ellipse fill="#c24747" stroke="black" cx="275.57" cy="-310.94" rx="49.49" ry="28.98"/>
<text text-anchor="middle" x="275.57" y="-319.44" font-family="Helvetica,sans-Serif" font-size="10.00" fill="#ffffff">anisotropy.</text>
<text text-anchor="middle" x="275.57" y="-308.44" font-family="Helvetica,sans-Serif" font-size="10.00" fill="#ffffff">salomepl.</text>
<text text-anchor="middle" x="275.57" y="-297.44" font-family="Helvetica,sans-Serif" font-size="10.00" fill="#ffffff">mesh</text>
</g>
<!-- anisotropy_salomepl_mesh&#45;&gt;anisotropy_core_main -->
<g id="edge27" class="edge">
<title>anisotropy_salomepl_mesh&#45;&gt;anisotropy_core_main</title><style>.edge>path:hover{stroke-width:8}</style>
<path fill="none" stroke="black" d="M285.8,-282.32C295.15,-261.14 311.12,-233.06 334.57,-217.96"/>
</g>
<!-- anisotropy_salomepl_utils -->
<g id="node17" class="node">
<title>anisotropy_salomepl_utils</title><style>.edge>path:hover{stroke-width:8}</style>
<ellipse fill="#c24747" stroke="black" cx="392.57" cy="-310.94" rx="49.49" ry="28.98"/>
<text text-anchor="middle" x="392.57" y="-319.44" font-family="Helvetica,sans-Serif" font-size="10.00" fill="#ffffff">anisotropy.</text>
<text text-anchor="middle" x="392.57" y="-308.44" font-family="Helvetica,sans-Serif" font-size="10.00" fill="#ffffff">salomepl.</text>
<text text-anchor="middle" x="392.57" y="-297.44" font-family="Helvetica,sans-Serif" font-size="10.00" fill="#ffffff">utils</text>
</g>
<!-- anisotropy_salomepl_utils&#45;&gt;anisotropy_core_main -->
<g id="edge28" class="edge">
<title>anisotropy_salomepl_utils&#45;&gt;anisotropy_core_main</title><style>.edge>path:hover{stroke-width:8}</style>
<path fill="none" stroke="black" d="M363.03,-287.33C337.82,-265.76 309.33,-234.21 334.57,-217.96"/>
</g>
<!-- anisotropy_samples -->
<g id="node18" class="node">
<title>anisotropy_samples</title><style>.edge>path:hover{stroke-width:8}</style>
<ellipse fill="#ac2b2b" stroke="black" cx="158.57" cy="-310.94" rx="49.49" ry="21.43"/>
<text text-anchor="middle" x="158.57" y="-313.94" font-family="Helvetica,sans-Serif" font-size="10.00" fill="#ffffff">anisotropy.</text>
<text text-anchor="middle" x="158.57" y="-302.94" font-family="Helvetica,sans-Serif" font-size="10.00" fill="#ffffff">samples</text>
</g>
<!-- anisotropy_samples&#45;&gt;anisotropy_core_main -->
<g id="edge29" class="edge">
<title>anisotropy_samples&#45;&gt;anisotropy_core_main</title><style>.edge>path:hover{stroke-width:8}</style>
<path fill="none" stroke="black" d="M190.08,-294.33C233.34,-272.76 308.7,-234.62 334.57,-217.96"/>
</g>
<!-- anisotropy_samples_bodyCentered&#45;&gt;anisotropy_samples -->
<g id="edge30" class="edge">
<title>anisotropy_samples_bodyCentered&#45;&gt;anisotropy_samples</title><style>.edge>path:hover{stroke-width:8}</style>
<path fill="none" stroke="black" d="M99.85,-377.81C110.73,-365.61 123.66,-351.1 134.62,-338.81"/>
<polygon fill="#b03a3a" stroke="black" points="137.45,-340.89 141.49,-331.1 132.23,-336.23 137.45,-340.89"/>
</g>
<!-- anisotropy_samples_faceCentered&#45;&gt;anisotropy_samples -->
<g id="edge31" class="edge">
<title>anisotropy_samples_faceCentered&#45;&gt;anisotropy_samples</title><style>.edge>path:hover{stroke-width:8}</style>
<path fill="none" stroke="black" d="M196.66,-376.82C189.99,-365.45 182.21,-352.21 175.44,-340.67"/>
<polygon fill="#b03a3a" stroke="black" points="178.34,-338.69 170.26,-331.84 172.3,-342.24 178.34,-338.69"/>
</g>
<!-- anisotropy_samples_simple&#45;&gt;anisotropy_samples -->
<g id="edge32" class="edge">
<title>anisotropy_samples_simple&#45;&gt;anisotropy_samples</title><style>.edge>path:hover{stroke-width:8}</style>
<path fill="none" stroke="black" d="M300.92,-385.09C271.07,-369.75 229.01,-348.13 198.35,-332.38"/>
<polygon fill="#b03a3a" stroke="black" points="199.72,-329.15 189.22,-327.69 196.52,-335.37 199.72,-329.15"/>
</g>
<!-- click -->
<g id="node22" class="node">
<title>click</title><style>.edge>path:hover{stroke-width:8}</style>
<polygon fill="#a2b653" stroke="black" points="1031.57,-328.94 1028.57,-332.94 1007.57,-332.94 1004.57,-328.94 977.57,-328.94 977.57,-292.94 1031.57,-292.94 1031.57,-328.94"/>
<text text-anchor="middle" x="1004.57" y="-308.44" font-family="Helvetica,sans-Serif" font-size="10.00" fill="#000000">click</text>
</g>
<!-- click&#45;&gt;anisotropy_core_cli -->
<g id="edge33" class="edge">
<title>click&#45;&gt;anisotropy_core_cli</title><style>.edge>path:hover{stroke-width:8}</style>
<path fill="none" stroke="black" d="M1020.13,-292.93C1035.56,-273.9 1054.97,-242.51 1040.57,-217.96"/>
<path fill="none" stroke="black" d="M1040.57,-215.96C997.51,-142.53 917.89,-196.04 872.57,-123.97"/>
</g>
<!-- peewee -->
<g id="node23" class="node">
<title>peewee</title><style>.edge>path:hover{stroke-width:8}</style>
<polygon fill="#53b67b" stroke="black" points="552.07,-610.89 549.07,-614.89 528.07,-614.89 525.07,-610.89 497.07,-610.89 497.07,-574.89 552.07,-574.89 552.07,-610.89"/>
<text text-anchor="middle" x="524.57" y="-590.39" font-family="Helvetica,sans-Serif" font-size="10.00" fill="#000000">peewee</text>
</g>
<!-- peewee&#45;&gt;anisotropy_core_models -->
<g id="edge34" class="edge">
<title>peewee&#45;&gt;anisotropy_core_models</title><style>.edge>path:hover{stroke-width:8}</style>
<path fill="none" stroke="black" d="M520.87,-574.88C513.37,-535.8 500.54,-438.15 543.57,-375.93 561.5,-350.01 592.9,-334.22 620.69,-324.82"/>
<polygon fill="#53b67b" stroke="black" points="621.87,-328.12 630.34,-321.75 619.75,-321.45 621.87,-328.12"/>
</g>
<!-- sphinx -->
<g id="node24" class="node">
<title>sphinx</title><style>.edge>path:hover{stroke-width:8}</style>
<polygon fill="#4778c2" stroke="black" points="1103.57,-328.94 1100.57,-332.94 1079.57,-332.94 1076.57,-328.94 1049.57,-328.94 1049.57,-292.94 1103.57,-292.94 1103.57,-328.94"/>
<text text-anchor="middle" x="1076.57" y="-308.44" font-family="Helvetica,sans-Serif" font-size="10.00" fill="#ffffff">sphinx</text>
</g>
<!-- sphinx&#45;&gt;anisotropy_core_cli -->
<g id="edge35" class="edge">
<title>sphinx&#45;&gt;anisotropy_core_cli</title><style>.edge>path:hover{stroke-width:8}</style>
<path fill="none" stroke="black" d="M1071.69,-292.93C1065.83,-273.9 1054.97,-242.51 1040.57,-217.96"/>
</g>
<!-- toml -->
<g id="node25" class="node">
<title>toml</title><style>.edge>path:hover{stroke-width:8}</style>
<polygon fill="#a640c0" stroke="black" points="496.57,-422.92 493.57,-426.92 472.57,-426.92 469.57,-422.92 442.57,-422.92 442.57,-386.92 496.57,-386.92 496.57,-422.92"/>
<text text-anchor="middle" x="469.57" y="-402.42" font-family="Helvetica,sans-Serif" font-size="10.00" fill="#ffffff">toml</text>
</g>
<!-- toml&#45;&gt;anisotropy_core_main -->
<g id="edge36" class="edge">
<title>toml&#45;&gt;anisotropy_core_main</title><style>.edge>path:hover{stroke-width:8}</style>
<path fill="none" stroke="black" d="M472.89,-386.74C475.8,-367.82 478.33,-336.79 469.57,-311.94"/>
</g>
</g>
</svg>
