<?xml version="1.0" encoding="UTF-8" standalone="no"?>
<!-- Created with Inkscape (http://www.inkscape.org/) -->

<svg
   width="108.85057mm"
   height="52.334656mm"
   viewBox="0 0 108.85057 52.334656"
   version="1.1"
   id="svg5"
   inkscape:version="1.1 (c68e22c387, 2021-05-23)"
   sodipodi:docname="fc_section.svg"
   xmlns:inkscape="http://www.inkscape.org/namespaces/inkscape"
   xmlns:sodipodi="http://sodipodi.sourceforge.net/DTD/sodipodi-0.dtd"
   xmlns="http://www.w3.org/2000/svg"
   xmlns:svg="http://www.w3.org/2000/svg">
  <sodipodi:namedview
     id="namedview7"
     pagecolor="#ffffff"
     bordercolor="#666666"
     borderopacity="1.0"
     inkscape:pageshadow="2"
     inkscape:pageopacity="0.0"
     inkscape:pagecheckerboard="0"
     inkscape:document-units="mm"
     showgrid="true"
     inkscape:zoom="0.77771465"
     inkscape:cx="142.72587"
     inkscape:cy="-147.22624"
     inkscape:window-width="1272"
     inkscape:window-height="1414"
     inkscape:window-x="4"
     inkscape:window-y="20"
     inkscape:window-maximized="1"
     inkscape:current-layer="layer1">
    <inkscape:grid
       type="xygrid"
       id="grid824"
       originx="-58.158336"
       originy="-32.382008" />
  </sodipodi:namedview>
  <defs
     id="defs2">
    <marker
       style="overflow:visible"
       id="SquareL"
       refX="0"
       refY="0"
       orient="auto"
       inkscape:stockid="SquareL"
       inkscape:isstock="true">
      <path
         transform="scale(0.8)"
         style="fill:context-stroke;fill-rule:evenodd;stroke:context-stroke;stroke-width:1pt"
         d="M -5,-5 V 5 H 5 V -5 Z"
         id="path3632" />
    </marker>
    <marker
       style="overflow:visible"
       id="marker3964"
       refX="0"
       refY="0"
       orient="auto"
       inkscape:stockid="Arrow2Lstart"
       inkscape:isstock="true">
      <path
         transform="matrix(1.1,0,0,1.1,1.1,0)"
         d="M 8.7185878,4.0337352 -2.2072895,0.01601326 8.7185884,-4.0017078 c -1.7454984,2.3720609 -1.7354408,5.6174519 -6e-7,8.035443 z"
         style="fill:context-stroke;fill-rule:evenodd;stroke-width:0.625;stroke-linejoin:round"
         id="path3962" />
    </marker>
    <marker
       style="overflow:visible"
       id="marker3954"
       refX="0"
       refY="0"
       orient="auto"
       inkscape:stockid="Arrow2Lstart"
       inkscape:isstock="true">
      <path
         transform="matrix(1.1,0,0,1.1,1.1,0)"
         d="M 8.7185878,4.0337352 -2.2072895,0.01601326 8.7185884,-4.0017078 c -1.7454984,2.3720609 -1.7354408,5.6174519 -6e-7,8.035443 z"
         style="fill:context-stroke;fill-rule:evenodd;stroke-width:0.625;stroke-linejoin:round"
         id="path3952" />
    </marker>
    <marker
       style="overflow:visible"
       id="Arrow2Lend"
       refX="0"
       refY="0"
       orient="auto"
       inkscape:stockid="Arrow2Lend"
       inkscape:isstock="true">
      <path
         transform="matrix(-1.1,0,0,-1.1,-1.1,0)"
         d="M 8.7185878,4.0337352 -2.2072895,0.01601326 8.7185884,-4.0017078 c -1.7454984,2.3720609 -1.7354408,5.6174519 -6e-7,8.035443 z"
         style="fill:context-stroke;fill-rule:evenodd;stroke-width:0.625;stroke-linejoin:round"
         id="path3583" />
    </marker>
    <marker
       style="overflow:visible"
       id="Arrow2Lstart"
       refX="0"
       refY="0"
       orient="auto"
       inkscape:stockid="Arrow2Lstart"
       inkscape:isstock="true">
      <path
         transform="matrix(1.1,0,0,1.1,1.1,0)"
         d="M 8.7185878,4.0337352 -2.2072895,0.01601326 8.7185884,-4.0017078 c -1.7454984,2.3720609 -1.7354408,5.6174519 -6e-7,8.035443 z"
         style="fill:context-stroke;fill-rule:evenodd;stroke-width:0.625;stroke-linejoin:round"
         id="path3580" />
    </marker>
    <clipPath
       clipPathUnits="userSpaceOnUse"
       id="clipPath39060">
      <circle
         style="opacity:0.537815;fill:#0000bf;fill-opacity:1;stroke:#000000;stroke-width:0.0804677;stroke-miterlimit:4;stroke-dasharray:none;stroke-dashoffset:0"
         id="circle39062"
         cx="84.469406"
         cy="64.074112"
         r="8.5161552" />
    </clipPath>
    <clipPath
       clipPathUnits="userSpaceOnUse"
       id="clipPath39056">
      <circle
         style="opacity:0.537815;fill:#0000bf;fill-opacity:1;stroke:#000000;stroke-width:0.0804677;stroke-miterlimit:4;stroke-dasharray:none;stroke-dashoffset:0"
         id="circle39058"
         cx="84.469406"
         cy="64.074112"
         r="8.5161552" />
    </clipPath>
    <clipPath
       clipPathUnits="userSpaceOnUse"
       id="clipPath39052">
      <circle
         style="opacity:0.537815;fill:#0000bf;fill-opacity:1;stroke:#000000;stroke-width:0.0804677;stroke-miterlimit:4;stroke-dasharray:none;stroke-dashoffset:0"
         id="circle39054"
         cx="84.469406"
         cy="64.074112"
         r="8.5161552" />
    </clipPath>
    <clipPath
       clipPathUnits="userSpaceOnUse"
       id="clipPath39048">
      <circle
         style="opacity:0.537815;fill:#0000bf;fill-opacity:1;stroke:#000000;stroke-width:0.0804677;stroke-miterlimit:4;stroke-dasharray:none;stroke-dashoffset:0"
         id="circle39050"
         cx="84.469406"
         cy="64.074112"
         r="8.5161552" />
    </clipPath>
    <marker
       style="overflow:visible"
       id="Arrow2Lend-1"
       refX="0"
       refY="0"
       orient="auto"
       inkscape:stockid="Arrow2Lend"
       inkscape:isstock="true">
      <path
         transform="matrix(-1.1,0,0,-1.1,-1.1,0)"
         d="M 8.7185878,4.0337352 -2.2072895,0.01601326 8.7185884,-4.0017078 c -1.7454984,2.3720609 -1.7354408,5.6174519 -6e-7,8.035443 z"
         style="fill:context-stroke;fill-rule:evenodd;stroke-width:0.625;stroke-linejoin:round"
         id="path3583-2" />
    </marker>
    <clipPath
       clipPathUnits="userSpaceOnUse"
       id="clipPath39044">
      <circle
         style="opacity:0.537815;fill:#0000bf;fill-opacity:1;stroke:#000000;stroke-width:0.0804677;stroke-miterlimit:4;stroke-dasharray:none;stroke-dashoffset:0"
         id="circle39046"
         cx="84.469406"
         cy="64.074112"
         r="8.5161552" />
    </clipPath>
    <clipPath
       clipPathUnits="userSpaceOnUse"
       id="clipPath39040">
      <circle
         style="opacity:0.537815;fill:#0000bf;fill-opacity:1;stroke:#000000;stroke-width:0.0804677;stroke-miterlimit:4;stroke-dasharray:none;stroke-dashoffset:0"
         id="circle39042"
         cx="84.469406"
         cy="64.074112"
         r="8.5161552" />
    </clipPath>
    <marker
       style="overflow:visible"
       id="marker39086"
       refX="0"
       refY="0"
       orient="auto"
       inkscape:stockid="Arrow2Lend"
       inkscape:isstock="true">
      <path
         transform="matrix(-1.1,0,0,-1.1,-1.1,0)"
         d="M 8.7185878,4.0337352 -2.2072895,0.01601326 8.7185884,-4.0017078 c -1.7454984,2.3720609 -1.7354408,5.6174519 -6e-7,8.035443 z"
         style="fill:context-stroke;fill-rule:evenodd;stroke-width:0.625;stroke-linejoin:round"
         id="path39084" />
    </marker>
    <clipPath
       clipPathUnits="userSpaceOnUse"
       id="clipPath39036">
      <circle
         style="opacity:0.537815;fill:#0000bf;fill-opacity:1;stroke:#000000;stroke-width:0.0804677;stroke-miterlimit:4;stroke-dasharray:none;stroke-dashoffset:0"
         id="circle39038"
         cx="84.469406"
         cy="64.074112"
         r="8.5161552" />
    </clipPath>
    <clipPath
       clipPathUnits="userSpaceOnUse"
       id="clipPath39032">
      <circle
         style="opacity:0.537815;fill:#0000bf;fill-opacity:1;stroke:#000000;stroke-width:0.0804677;stroke-miterlimit:4;stroke-dasharray:none;stroke-dashoffset:0"
         id="circle39034"
         cx="84.469406"
         cy="64.074112"
         r="8.5161552" />
    </clipPath>
    <clipPath
       clipPathUnits="userSpaceOnUse"
       id="clipPath39028">
      <circle
         style="opacity:0.537815;fill:#0000bf;fill-opacity:1;stroke:#000000;stroke-width:0.0804677;stroke-miterlimit:4;stroke-dasharray:none;stroke-dashoffset:0"
         id="circle39030"
         cx="84.469406"
         cy="64.074112"
         r="8.5161552" />
    </clipPath>
  </defs>
  <g
     inkscape:label="Layer 1"
     inkscape:groupmode="layer"
     id="layer1"
     transform="translate(-58.158334,-32.382008)">
    <path
       style="fill:none;stroke:#000000;stroke-width:0.1;stroke-linecap:butt;stroke-linejoin:miter;stroke-miterlimit:4;stroke-dasharray:none;stroke-opacity:1;marker-start:url(#SquareL);marker-end:url(#SquareL)"
       d="M 92.604166,67.468749 129.64583,58.208333"
       id="path39935" />
    <g
       id="g56000">
      <g
         id="g55305">
        <circle
           style="fill:none;stroke:#000000;stroke-width:0.117466;stroke-miterlimit:3.64;stroke-dasharray:none"
           id="path848-8"
           cx="71.4375"
           cy="71.4375"
           r="13.229166"
           clip-path="url(#clipPath39060)"
           transform="matrix(2.252421,0,0,2.252421,-42.538312,-92.7579)" />
        <circle
           style="fill:none;stroke:#000000;stroke-width:0.117466;stroke-miterlimit:3.64;stroke-dasharray:none"
           id="path850-1"
           cx="84.703644"
           cy="48.372261"
           r="13.229166"
           clip-path="url(#clipPath39056)"
           transform="matrix(2.252421,0,0,2.252421,-42.538312,-92.7579)" />
        <circle
           style="fill:none;stroke:#000000;stroke-width:0.117466;stroke-miterlimit:3.64;stroke-dasharray:none"
           id="path954-5"
           cx="97.895836"
           cy="71.4375"
           r="13.229166"
           clip-path="url(#clipPath39052)"
           transform="matrix(2.252421,0,0,2.252421,-42.538312,-92.7579)" />
        <circle
           style="fill:none;stroke:#000000;stroke-width:0.117466;stroke-miterlimit:3.64;stroke-dasharray:none"
           id="path1058-4"
           cx="84.553284"
           cy="63.735641"
           r="1.9282231"
           clip-path="url(#clipPath39048)"
           transform="matrix(2.252421,0,0,2.252421,-42.538312,-92.7579)" />
        <path
           style="fill:none;stroke:#000000;stroke-width:0.117466;stroke-linecap:butt;stroke-linejoin:miter;stroke-miterlimit:3.64;stroke-dasharray:none;stroke-opacity:1;marker-mid:url(#Arrow2Lend-1)"
           d="M 84.666667,63.5 V 61.64638 47.625"
           id="path1175-4"
           sodipodi:nodetypes="ccc"
           clip-path="url(#clipPath39044)"
           transform="matrix(2.252421,0,0,2.252421,-42.538312,-92.7579)" />
        <path
           style="fill:none;stroke:#000000;stroke-width:0.117466;stroke-linecap:butt;stroke-linejoin:miter;stroke-miterlimit:3.64;stroke-dasharray:none;stroke-opacity:1"
           d="m 84.666666,47.624999 13.229166,23.8125"
           id="path5727-9"
           clip-path="url(#clipPath39040)"
           transform="matrix(2.252421,0,0,2.252421,-42.538312,-92.7579)" />
        <path
           style="fill:none;stroke:#000000;stroke-width:0.117466;stroke-linecap:butt;stroke-linejoin:miter;stroke-miterlimit:3.64;stroke-dasharray:none;stroke-opacity:1;marker-mid:url(#Arrow2Lend-1)"
           d="m 84.666666,47.624999 -6.614583,11.90625 -6.614584,11.90625"
           id="path5842-3"
           sodipodi:nodetypes="ccc"
           clip-path="url(#clipPath39036)"
           transform="matrix(2.252421,0,0,2.252421,-42.538312,-92.7579)" />
        <path
           style="fill:none;stroke:#000000;stroke-width:0.117466;stroke-linecap:butt;stroke-linejoin:miter;stroke-miterlimit:3.64;stroke-dasharray:none;stroke-opacity:1"
           d="M 97.895832,71.437499 H 71.437499"
           id="path5844-4"
           clip-path="url(#clipPath39032)"
           transform="matrix(2.252421,0,0,2.252421,-42.538312,-92.7579)" />
        <path
           style="fill:none;stroke:#000000;stroke-width:0.117466;stroke-linecap:butt;stroke-linejoin:miter;stroke-miterlimit:3.64;stroke-dasharray:none;stroke-opacity:1"
           d="m 84.666666,63.499999 -13.229167,7.9375"
           id="path5846-5"
           clip-path="url(#clipPath39028)"
           transform="matrix(2.252421,0,0,2.252421,-42.538312,-92.7579)" />
        <circle
           style="fill:none;fill-opacity:1;stroke:#000000;stroke-width:0.264583;stroke-miterlimit:3.64;stroke-dasharray:none;stroke-dashoffset:0"
           id="path37196-5"
           cx="147.69464"
           cy="51.789608"
           r="19.181969" />
        <text
           xml:space="preserve"
           style="font-size:4.23333px;line-height:1.25;font-family:sans-serif;stroke-width:0.264583;stroke-miterlimit:3.64;stroke-dasharray:none"
           x="148.22005"
           y="52.338802"
           id="text50371"><tspan
             sodipodi:role="line"
             id="tspan50369"
             style="stroke-width:0.264583;stroke-miterlimit:3.64;stroke-dasharray:none"
             x="148.22005"
             y="52.338802">$r_1$</tspan></text>
      </g>
      <path
         style="opacity:1;fill:#666666;fill-opacity:1;stroke:none;stroke-width:0.160727;stroke-miterlimit:3.64;stroke-dasharray:none;stroke-dashoffset:0"
         d="m 559.92171,245.18954 c -0.0532,-0.3094 -0.2146,-1.5028 -0.35861,-2.652 -1.46487,-11.69025 -5.48253,-24.75373 -10.99495,-35.75032 -0.53357,-1.06441 -0.97013,-1.97429 -0.97013,-2.02195 0,-0.0477 0.52437,0.30322 1.16527,0.77975 5.88031,4.37215 13.77465,4.60419 19.74838,0.58047 1.41668,-0.95422 3.51461,-3.02948 4.49227,-4.44372 2.03432,-2.94276 3.18802,-6.8704 3.0164,-10.269 -0.0331,-0.65559 -0.009,-1.19197 0.053,-1.19197 0.0623,0 0.29874,0.0705 0.52549,0.15675 0.41144,0.15643 0.41228,0.15496 0.41228,-0.72328 v -0.88002 h -0.61656 -0.61655 l -0.27503,-0.98921 c -0.88378,-3.1788 -2.20252,-5.47117 -4.42979,-7.70038 -2.65982,-2.66212 -5.57764,-4.21164 -9.07888,-4.82135 -0.71162,-0.12392 -1.11269,-0.27808 -1.21348,-0.46642 -0.13538,-0.25296 -0.0272,-0.29175 1.07247,-0.38471 0.67268,-0.0569 1.845,-0.10368 2.60516,-0.10404 3.33202,-0.002 9.81678,-0.66873 14.96357,-1.53945 9.67314,-1.63649 19.42696,-4.65871 28.43733,-8.81133 1.45233,-0.66933 2.66283,-1.19473 2.69,-1.16756 0.0272,0.0272 -0.68882,0.55066 -1.5911,1.16329 -10.26262,6.96813 -19.50836,15.81797 -27.01156,25.85495 -11.62089,15.54516 -19.08074,33.92502 -21.56447,53.13132 -0.26342,2.03699 -0.39043,2.65758 -0.46052,2.25018 z"
         id="path55613"
         transform="scale(0.26458333)" />
      <path
         style="opacity:1;fill:#666666;fill-opacity:1;stroke:none;stroke-width:0.160727;stroke-miterlimit:3.64;stroke-dasharray:none;stroke-dashoffset:0"
         d="m 541.73147,195.00179 c -2.13272,-3.32518 -6.77581,-9.35149 -9.81938,-12.74465 -7.00489,-7.80951 -15.4454,-14.98201 -23.81642,-20.2385 -0.81969,-0.51472 -1.46518,-0.961 -1.43443,-0.99175 0.0307,-0.0308 1.497,0.66071 3.25834,1.53659 14.31653,7.11931 29.86696,11.10437 45.76082,11.72695 1.9259,0.0755 3.53125,0.16678 3.56744,0.20297 0.25257,0.25257 -0.38842,0.47606 -1.77326,0.61827 -2.21148,0.22711 -3.89199,0.68985 -5.77801,1.59103 -7.01285,3.3509 -10.78807,10.92638 -9.31986,18.70155 0.0626,0.3315 0.0877,0.6021 0.0557,0.60133 -0.0319,-8.1e-4 -0.34738,-0.45248 -0.70098,-1.00379 z"
         id="path55652"
         transform="scale(0.26458333)" />
      <path
         style="opacity:1;fill:#666666;fill-opacity:1;stroke:none;stroke-width:0.160727;stroke-miterlimit:3.64;stroke-dasharray:none;stroke-dashoffset:0"
         d="m 499.46018,157.08415 c -1.51625,-0.77081 -1.47085,-0.73644 -1.2564,-0.95088 0.11779,-0.11779 0.52687,0.0598 1.35546,0.58832 1.97128,1.25747 1.93348,1.39582 -0.0991,0.36256 z"
         id="path55691"
         transform="scale(0.26458333)" />
    </g>
    <path
       style="opacity:1;fill:#666666;fill-opacity:1;stroke:none;stroke-width:0.160727;stroke-miterlimit:3.64;stroke-dasharray:none;stroke-dashoffset:0"
       d=""
       id="path55730"
       transform="scale(0.26458333)" />
    <g
       id="g55982">
      <g
         id="g40049">
        <circle
           style="fill:none;stroke:#000000;stroke-width:0.1;stroke-miterlimit:4;stroke-dasharray:none"
           id="path848"
           cx="71.4375"
           cy="71.4375"
           r="13.229166" />
        <circle
           style="fill:none;stroke:#000000;stroke-width:0.1;stroke-miterlimit:4;stroke-dasharray:none"
           id="path850"
           cx="84.703644"
           cy="48.372261"
           r="13.229166" />
        <circle
           style="fill:none;stroke:#000000;stroke-width:0.1;stroke-miterlimit:4;stroke-dasharray:none"
           id="path954"
           cx="97.895836"
           cy="71.4375"
           r="13.229166" />
        <circle
           style="fill:none;stroke:#000000;stroke-width:0.192822"
           id="path1058"
           cx="84.553284"
           cy="63.735641"
           r="1.9282231" />
        <path
           style="fill:none;stroke:#000000;stroke-width:0.1;stroke-linecap:butt;stroke-linejoin:miter;stroke-miterlimit:0.4;stroke-dasharray:none;stroke-opacity:1;marker-mid:url(#Arrow2Lend)"
           d="M 84.666667,63.5 V 61.64638 47.625"
           id="path1175"
           sodipodi:nodetypes="ccc" />
        <path
           style="fill:none;stroke:#000000;stroke-width:0.1;stroke-linecap:butt;stroke-linejoin:miter;stroke-miterlimit:4;stroke-dasharray:none;stroke-opacity:1"
           d="m 84.666666,47.624999 13.229166,23.8125"
           id="path5727" />
        <path
           style="fill:none;stroke:#000000;stroke-width:0.1;stroke-linecap:butt;stroke-linejoin:miter;stroke-miterlimit:4;stroke-dasharray:none;stroke-opacity:1;marker-mid:url(#Arrow2Lend)"
           d="m 84.666666,47.624999 -6.614583,11.90625 -6.614584,11.90625"
           id="path5842"
           sodipodi:nodetypes="ccc" />
        <path
           style="fill:none;stroke:#000000;stroke-width:0.1;stroke-linecap:butt;stroke-linejoin:miter;stroke-miterlimit:4;stroke-dasharray:none;stroke-opacity:1"
           d="M 97.895832,71.437499 H 71.437499"
           id="path5844" />
        <path
           style="fill:none;stroke:#000000;stroke-width:0.1;stroke-linecap:butt;stroke-linejoin:miter;stroke-miterlimit:4;stroke-dasharray:none;stroke-opacity:1"
           d="m 84.666666,63.499999 -13.229167,7.9375"
           id="path5846" />
        <text
           xml:space="preserve"
           style="font-style:normal;font-weight:normal;font-size:4.23333px;line-height:1.25;font-family:sans-serif;fill:#000000;fill-opacity:1;stroke:none;stroke-width:0.1;stroke-miterlimit:4;stroke-dasharray:none"
           x="77.600502"
           y="53.555672"
           id="text25461"><tspan
             sodipodi:role="line"
             id="tspan25459"
             style="font-size:4.23333px;stroke-width:0.1;stroke-miterlimit:4;stroke-dasharray:none"
             x="77.600502"
             y="53.555672">$r_0$</tspan></text>
        <circle
           style="fill:none;fill-opacity:1;stroke:#000000;stroke-width:0.0804676;stroke-miterlimit:4;stroke-dasharray:none;stroke-dashoffset:0"
           id="path37196"
           cx="84.469406"
           cy="64.074112"
           r="8.5161552" />
      </g>
      <path
         style="opacity:1;fill:#666666;fill-opacity:1;stroke:none;stroke-width:0.321455;stroke-miterlimit:3.64;stroke-dasharray:none;stroke-dashoffset:0"
         d="m 327.24085,241.11446 c 0,-1.19938 -0.21826,-2.65686 -0.49848,-3.3287 -0.65687,-1.57489 -2.25383,-3.22511 -3.81036,-3.93742 l -1.25502,-0.57433 1.89793,-0.20879 c 6.20746,-0.68286 10.9919,-1.73579 14.66008,-3.22631 1.08474,-0.44077 2.01016,-0.76349 2.0565,-0.71715 0.0463,0.0463 -1.12955,1.06683 -2.61308,2.26778 -3.0644,2.4807 -5.99736,5.65235 -8.63101,9.33342 l -1.80656,2.52506 z"
         id="path55769"
         transform="scale(0.26458333)" />
      <path
         style="opacity:1;fill:#666666;fill-opacity:1;stroke:none;stroke-width:0.321455;stroke-miterlimit:3.64;stroke-dasharray:none;stroke-dashoffset:0"
         d="m 310.05091,239.44731 c -1.8405,-2.50935 -6.33816,-7.09444 -8.77407,-8.94461 -0.91681,-0.69636 -1.6076,-1.32544 -1.53509,-1.39795 0.0725,-0.0725 1.26273,0.30365 2.64492,0.83593 4.09416,1.57665 10.2335,2.95182 13.18247,2.95278 1.49435,4.9e-4 2.10408,0.47213 0.98112,0.75891 -1.15009,0.29371 -3.09194,2.08179 -3.82827,3.52512 -0.37271,0.73057 -0.76632,2.03079 -0.87468,2.88938 l -0.19701,1.56106 z"
         id="path55808"
         transform="scale(0.26458333)" />
      <path
         style="opacity:1;fill:#666666;fill-opacity:1;stroke:none;stroke-width:0.321455;stroke-miterlimit:3.64;stroke-dasharray:none;stroke-dashoffset:0"
         d="m 319.61652,261.62926 c -0.46117,-3.11934 -1.69823,-7.44014 -3.1588,-11.03307 -0.60593,-1.49054 -1.0536,-2.75817 -0.99482,-2.81694 0.0588,-0.0588 0.63072,0.11201 1.27099,0.37953 2.32418,0.9711 6.16,0.32504 8.0099,-1.34909 0.73511,-0.66527 0.71788,-0.36076 -0.0666,1.17697 -1.88936,3.70344 -3.60306,9.18156 -4.31804,13.80333 l -0.36758,2.37607 z"
         id="path55847"
         transform="scale(0.26458333)" />
    </g>
  </g>
</svg>
